<?xml version="1.0" standalone="no"?>
<!DOCTYPE svg PUBLIC "-//W3C//DTD SVG 20010904//EN"
 "http://www.w3.org/TR/2001/REC-SVG-20010904/DTD/svg10.dtd">
<svg version="1.0" xmlns="http://www.w3.org/2000/svg"
 width="300.000000pt" height="193.000000pt" viewBox="0 0 300.000000 193.000000"
 preserveAspectRatio="xMidYMid meet">

<g transform="translate(0.000000,193.000000) scale(0.100000,-0.100000)"
fill="#000000" stroke="none">
<path d="M1506 1879 c-7 -36 -65 -96 -98 -101 -33 -5 -32 -25 2 -32 40 -7 88
-56 96 -95 8 -40 20 -39 34 4 13 39 71 95 100 95 33 0 31 18 -2 29 -43 15 -85
57 -99 98 -13 41 -25 42 -33 2z"/>
<path d="M1374 1670 c-11 -4 -32 -21 -45 -38 -25 -29 -26 -29 -48 -11 -35 28
-68 24 -106 -14 -27 -27 -37 -32 -56 -25 -28 11 -72 -18 -77 -50 -2 -12 11
-51 28 -88 32 -66 32 -66 67 -59 29 5 409 6 722 1 l84 -1 13 37 c7 20 22 46
33 57 12 12 21 28 21 37 0 50 -57 85 -96 59 -22 -14 -24 -14 -24 4 0 25 -45
61 -77 61 -13 0 -34 -10 -47 -23 -23 -23 -23 -23 -32 -3 -5 11 -25 31 -44 44
-44 30 -84 24 -122 -18 -53 -57 -26 -128 53 -140 l44 -7 -42 -2 c-31 -1 -49 5
-72 24 l-30 26 -20 -20 c-24 -24 -59 -35 -92 -28 -17 3 -13 5 12 6 45 1 79 35
79 80 0 43 -14 68 -50 86 -32 17 -45 18 -76 5z"/>
<path d="M120 1518 c-39 -101 -52 -176 -44 -248 11 -95 51 -151 196 -277 51
-44 164 -142 250 -217 87 -75 161 -136 164 -136 3 0 5 35 3 78 -4 70 -8 84
-49 156 -25 43 -103 155 -174 250 -153 203 -206 283 -259 394 -22 45 -43 82
-48 82 -4 0 -22 -37 -39 -82z"/>
<path d="M2804 1538 c-50 -108 -109 -198 -269 -414 -85 -115 -168 -236 -185
-269 -28 -55 -31 -69 -28 -137 l3 -76 50 45 c28 25 120 104 205 177 191 161
300 269 324 319 24 53 31 135 16 209 -12 66 -67 208 -79 208 -4 0 -20 -28 -37
-62z"/>
<path d="M1325 1374 c-99 -8 -188 -12 -198 -10 -11 3 -17 0 -14 -7 2 -8 80
-21 209 -36 l206 -24 198 24 c143 17 199 28 202 38 3 8 0 11 -6 7 -9 -5 -158
2 -367 17 -27 2 -131 -2 -230 -9z"/>
<path d="M1260 1282 c0 -5 9 -35 20 -67 17 -50 20 -84 20 -254 l0 -196 130
-118 130 -118 0 -189 c0 -158 -3 -191 -16 -204 -21 -21 -41 -20 -54 3 -5 11
-10 87 -10 173 l-1 153 -139 145 -140 145 0 158 c0 154 1 158 26 197 15 22 24
43 21 46 -9 9 -547 -8 -547 -18 0 -5 7 -25 16 -46 12 -31 14 -62 8 -183 l-7
-145 147 -134 147 -133 -3 -86 -3 -86 -29 -3 c-39 -5 -46 10 -46 99 l0 75
-112 91 c-62 50 -115 90 -117 88 -2 -2 4 -22 12 -44 14 -33 15 -71 10 -250 -5
-187 -8 -213 -25 -227 -10 -10 -18 -21 -18 -26 0 -4 126 -8 280 -8 154 0 280
4 280 8 0 5 -9 17 -20 27 -19 17 -20 31 -20 219 l0 200 -150 151 c-130 131
-150 156 -150 183 0 36 30 72 59 72 34 0 53 -29 49 -76 -3 -42 -3 -42 145
-197 l147 -155 0 -232 c0 -230 0 -231 -25 -268 -14 -20 -25 -40 -25 -44 0 -5
117 -8 261 -8 l261 0 -21 36 c-20 33 -21 49 -21 300 l0 266 40 -32 40 -32 0
-180 c0 -167 -1 -182 -21 -206 l-21 -27 268 -3 c147 -1 269 0 272 3 3 3 -2 13
-11 23 -15 16 -17 47 -17 224 l0 205 -150 143 c-125 118 -150 147 -150 171 0
30 33 69 59 69 32 0 45 -19 51 -71 5 -51 7 -54 103 -142 53 -50 100 -87 103
-84 4 3 1 20 -5 38 -6 18 -11 101 -11 196 0 146 2 168 21 204 11 23 19 42 17
44 -2 1 -125 5 -275 7 l-272 5 17 -36 c13 -27 17 -71 20 -183 2 -82 -1 -148
-5 -148 -4 0 -23 14 -40 30 l-33 30 0 147 c0 120 4 157 19 198 10 28 22 60 25
73 l7 22 -260 0 c-144 0 -261 -4 -261 -8z m298 -302 l-5 -69 268 -218 268
-218 1 -82 c0 -74 -2 -82 -21 -88 -33 -11 -46 13 -52 89 -2 37 -9 71 -14 75
-5 3 -125 104 -266 225 l-257 218 0 71 c0 58 4 75 21 93 l22 23 20 -25 c17
-22 19 -36 15 -94z"/>
<path d="M12 1112 c-18 -60 -15 -130 9 -179 29 -61 116 -134 399 -341 135 -98
251 -181 258 -186 9 -5 12 16 12 96 l0 103 -324 270 c-178 148 -328 271 -333
272 -5 2 -15 -14 -21 -35z"/>
<path d="M2645 883 l-320 -266 -3 -103 c-1 -57 0 -104 3 -104 14 0 536 388
583 434 71 68 92 110 92 184 0 57 -15 122 -28 122 -4 0 -151 -120 -327 -267z"/>
<path d="M24 799 c-9 -14 5 -117 21 -155 26 -62 87 -113 280 -234 l195 -122 0
-94 c0 -52 3 -94 6 -94 3 0 42 30 85 66 l79 66 0 69 0 69 -330 220 c-194 130
-332 215 -336 209z"/>
<path d="M2643 592 l-323 -215 0 -77 0 -77 75 -62 c41 -33 77 -61 80 -61 3 0
5 42 5 93 l0 93 193 122 c199 125 256 172 281 232 18 44 32 156 20 162 -5 3
-154 -91 -331 -210z"/>
</g>
</svg>
